# xmcd
#
# Track frame offsets:
#	183
#	16240
#	31068
#	45010
#	62088
#	76805
#	90145
#	105653
#	118225
#	131453
#	146460
#	161335
#	175743
#	189658
#
# Disc length: 2710 seconds
#
# Revision: 1
# Processed by: cddbd v1.5.2PL0 Copyright (c) Steve Scherf et al.
# Submitted via: audiograbber 1.83.01
#
DISCID=9c0a940e
DTITLE=AA.VV. - 054 - Tu musica divina
DYEAR=1994
DGENRE=Folk
TTITLE0=Mina - Due note
TTITLE1=A.Rabagliati - Tu musica divina
TTITLE2=A. Rabagliati - Quando canta Rabagliati
TTITLE3=K.Ranieri - Canzone da due soldi
TTITLE4=Orchestra Barzizza - Quel motivetto che mi piace tanto
TTITLE5=N.Otto - Basta un poco di musica
TTITLE6=G.Vanorio - Dduje paravise
TTITLE7=B.Curtis - Cantando con le lacrime agli occhi
TTITLE8=E.Bonino - Musica maestro
TTITLE9=Trio Lescano - C'è un'orchestra sincopata
TTITLE10=Trio Lescano - Valzer della fisarmonica
TTITLE11=P.Pavesio - Il valzer dell'organino
TTITLE12=N.Colombo-D.Garbaccio-A.Donà - Il tamburo della banda d'Affori
TTITLE13=N.Otto - Natalino studia canto
EXTD=
EXTT0=
EXTT1=
EXTT2=
EXTT3=
EXTT4=
EXTT5=
EXTT6=
EXTT7=
EXTT8=
EXTT9=
EXTT10=
EXTT11=
EXTT12=
EXTT13=
PLAYORDER=
